<?xml version="1.0" encoding="utf-8" standalone="no"?>
<!DOCTYPE svg PUBLIC "-//W3C//DTD SVG 1.1//EN"
  "http://www.w3.org/Graphics/SVG/1.1/DTD/svg11.dtd">
<svg xmlns:xlink="http://www.w3.org/1999/xlink" width="504pt" height="288pt" viewBox="0 0 504 288" xmlns="http://www.w3.org/2000/svg" version="1.1">
 <metadata>
  <rdf:RDF xmlns:dc="http://purl.org/dc/elements/1.1/" xmlns:cc="http://creativecommons.org/ns#" xmlns:rdf="http://www.w3.org/1999/02/22-rdf-syntax-ns#">
   <cc:Work>
    <dc:type rdf:resource="http://purl.org/dc/dcmitype/StillImage"/>
    <dc:date>2026-04-17T14:39:49.372412</dc:date>
    <dc:format>image/svg+xml</dc:format>
    <dc:creator>
     <cc:Agent>
      <dc:title>Matplotlib v3.10.6, https://matplotlib.org/</dc:title>
     </cc:Agent>
    </dc:creator>
   </cc:Work>
  </rdf:RDF>
 </metadata>
 <defs>
  <style type="text/css">*{stroke-linejoin: round; stroke-linecap: butt}</style>
 </defs>
 <g id="figure_1">
  <g id="patch_1">
   <path d="M 0 288 
L 504 288 
L 504 0 
L 0 0 
z
" style="fill: #ffffff"/>
  </g>
  <g id="axes_1">
   <g id="patch_2">
    <path d="M 44.39 248.92 
L 493.2 248.92 
L 493.2 25.44 
L 44.39 25.44 
z
" style="fill: #eaeaf2"/>
   </g>
   <g id="matplotlib.axis_1">
    <g id="xtick_1">
     <g id="text_1">
      <!-- Gaussian Process -->
      <g style="fill: #262626" transform="translate(78.619792 263.077812) scale(0.1 -0.1)">
       <defs>
        <path id="ArialMT-47" d="M 2638 1797 
L 2638 2334 
L 4578 2338 
L 4578 638 
Q 4131 281 3656 101 
Q 3181 -78 2681 -78 
Q 2006 -78 1454 211 
Q 903 500 622 1047 
Q 341 1594 341 2269 
Q 341 2938 620 3517 
Q 900 4097 1425 4378 
Q 1950 4659 2634 4659 
Q 3131 4659 3532 4498 
Q 3934 4338 4162 4050 
Q 4391 3763 4509 3300 
L 3963 3150 
Q 3859 3500 3706 3700 
Q 3553 3900 3268 4020 
Q 2984 4141 2638 4141 
Q 2222 4141 1919 4014 
Q 1616 3888 1430 3681 
Q 1244 3475 1141 3228 
Q 966 2803 966 2306 
Q 966 1694 1177 1281 
Q 1388 869 1791 669 
Q 2194 469 2647 469 
Q 3041 469 3416 620 
Q 3791 772 3984 944 
L 3984 1797 
L 2638 1797 
z
" transform="scale(0.015625)"/>
        <path id="ArialMT-61" d="M 2588 409 
Q 2275 144 1986 34 
Q 1697 -75 1366 -75 
Q 819 -75 525 192 
Q 231 459 231 875 
Q 231 1119 342 1320 
Q 453 1522 633 1644 
Q 813 1766 1038 1828 
Q 1203 1872 1538 1913 
Q 2219 1994 2541 2106 
Q 2544 2222 2544 2253 
Q 2544 2597 2384 2738 
Q 2169 2928 1744 2928 
Q 1347 2928 1158 2789 
Q 969 2650 878 2297 
L 328 2372 
Q 403 2725 575 2942 
Q 747 3159 1072 3276 
Q 1397 3394 1825 3394 
Q 2250 3394 2515 3294 
Q 2781 3194 2906 3042 
Q 3031 2891 3081 2659 
Q 3109 2516 3109 2141 
L 3109 1391 
Q 3109 606 3145 398 
Q 3181 191 3288 0 
L 2700 0 
Q 2613 175 2588 409 
z
M 2541 1666 
Q 2234 1541 1622 1453 
Q 1275 1403 1131 1340 
Q 988 1278 909 1158 
Q 831 1038 831 891 
Q 831 666 1001 516 
Q 1172 366 1500 366 
Q 1825 366 2078 508 
Q 2331 650 2450 897 
Q 2541 1088 2541 1459 
L 2541 1666 
z
" transform="scale(0.015625)"/>
        <path id="ArialMT-75" d="M 2597 0 
L 2597 488 
Q 2209 -75 1544 -75 
Q 1250 -75 995 37 
Q 741 150 617 320 
Q 494 491 444 738 
Q 409 903 409 1263 
L 409 3319 
L 972 3319 
L 972 1478 
Q 972 1038 1006 884 
Q 1059 663 1231 536 
Q 1403 409 1656 409 
Q 1909 409 2131 539 
Q 2353 669 2445 892 
Q 2538 1116 2538 1541 
L 2538 3319 
L 3100 3319 
L 3100 0 
L 2597 0 
z
" transform="scale(0.015625)"/>
        <path id="ArialMT-73" d="M 197 991 
L 753 1078 
Q 800 744 1014 566 
Q 1228 388 1613 388 
Q 2000 388 2187 545 
Q 2375 703 2375 916 
Q 2375 1106 2209 1216 
Q 2094 1291 1634 1406 
Q 1016 1563 777 1677 
Q 538 1791 414 1992 
Q 291 2194 291 2438 
Q 291 2659 392 2848 
Q 494 3038 669 3163 
Q 800 3259 1026 3326 
Q 1253 3394 1513 3394 
Q 1903 3394 2198 3281 
Q 2494 3169 2634 2976 
Q 2775 2784 2828 2463 
L 2278 2388 
Q 2241 2644 2061 2787 
Q 1881 2931 1553 2931 
Q 1166 2931 1000 2803 
Q 834 2675 834 2503 
Q 834 2394 903 2306 
Q 972 2216 1119 2156 
Q 1203 2125 1616 2013 
Q 2213 1853 2448 1751 
Q 2684 1650 2818 1456 
Q 2953 1263 2953 975 
Q 2953 694 2789 445 
Q 2625 197 2315 61 
Q 2006 -75 1616 -75 
Q 969 -75 630 194 
Q 291 463 197 991 
z
" transform="scale(0.015625)"/>
        <path id="ArialMT-69" d="M 425 3934 
L 425 4581 
L 988 4581 
L 988 3934 
L 425 3934 
z
M 425 0 
L 425 3319 
L 988 3319 
L 988 0 
L 425 0 
z
" transform="scale(0.015625)"/>
        <path id="ArialMT-6e" d="M 422 0 
L 422 3319 
L 928 3319 
L 928 2847 
Q 1294 3394 1984 3394 
Q 2284 3394 2536 3286 
Q 2788 3178 2913 3003 
Q 3038 2828 3088 2588 
Q 3119 2431 3119 2041 
L 3119 0 
L 2556 0 
L 2556 2019 
Q 2556 2363 2490 2533 
Q 2425 2703 2258 2804 
Q 2091 2906 1866 2906 
Q 1506 2906 1245 2678 
Q 984 2450 984 1813 
L 984 0 
L 422 0 
z
" transform="scale(0.015625)"/>
        <path id="ArialMT-20" transform="scale(0.015625)"/>
        <path id="ArialMT-50" d="M 494 0 
L 494 4581 
L 2222 4581 
Q 2678 4581 2919 4538 
Q 3256 4481 3484 4323 
Q 3713 4166 3852 3881 
Q 3991 3597 3991 3256 
Q 3991 2672 3619 2267 
Q 3247 1863 2275 1863 
L 1100 1863 
L 1100 0 
L 494 0 
z
M 1100 2403 
L 2284 2403 
Q 2872 2403 3119 2622 
Q 3366 2841 3366 3238 
Q 3366 3525 3220 3729 
Q 3075 3934 2838 4000 
Q 2684 4041 2272 4041 
L 1100 4041 
L 1100 2403 
z
" transform="scale(0.015625)"/>
        <path id="ArialMT-72" d="M 416 0 
L 416 3319 
L 922 3319 
L 922 2816 
Q 1116 3169 1280 3281 
Q 1444 3394 1641 3394 
Q 1925 3394 2219 3213 
L 2025 2691 
Q 1819 2813 1613 2813 
Q 1428 2813 1281 2702 
Q 1134 2591 1072 2394 
Q 978 2094 978 1738 
L 978 0 
L 416 0 
z
" transform="scale(0.015625)"/>
        <path id="ArialMT-6f" d="M 213 1659 
Q 213 2581 725 3025 
Q 1153 3394 1769 3394 
Q 2453 3394 2887 2945 
Q 3322 2497 3322 1706 
Q 3322 1066 3130 698 
Q 2938 331 2570 128 
Q 2203 -75 1769 -75 
Q 1072 -75 642 372 
Q 213 819 213 1659 
z
M 791 1659 
Q 791 1022 1069 705 
Q 1347 388 1769 388 
Q 2188 388 2466 706 
Q 2744 1025 2744 1678 
Q 2744 2294 2464 2611 
Q 2184 2928 1769 2928 
Q 1347 2928 1069 2612 
Q 791 2297 791 1659 
z
" transform="scale(0.015625)"/>
        <path id="ArialMT-63" d="M 2588 1216 
L 3141 1144 
Q 3050 572 2676 248 
Q 2303 -75 1759 -75 
Q 1078 -75 664 370 
Q 250 816 250 1647 
Q 250 2184 428 2587 
Q 606 2991 970 3192 
Q 1334 3394 1763 3394 
Q 2303 3394 2647 3120 
Q 2991 2847 3088 2344 
L 2541 2259 
Q 2463 2594 2264 2762 
Q 2066 2931 1784 2931 
Q 1359 2931 1093 2626 
Q 828 2322 828 1663 
Q 828 994 1084 691 
Q 1341 388 1753 388 
Q 2084 388 2306 591 
Q 2528 794 2588 1216 
z
" transform="scale(0.015625)"/>
        <path id="ArialMT-65" d="M 2694 1069 
L 3275 997 
Q 3138 488 2766 206 
Q 2394 -75 1816 -75 
Q 1088 -75 661 373 
Q 234 822 234 1631 
Q 234 2469 665 2931 
Q 1097 3394 1784 3394 
Q 2450 3394 2872 2941 
Q 3294 2488 3294 1666 
Q 3294 1616 3291 1516 
L 816 1516 
Q 847 969 1125 678 
Q 1403 388 1819 388 
Q 2128 388 2347 550 
Q 2566 713 2694 1069 
z
M 847 1978 
L 2700 1978 
Q 2663 2397 2488 2606 
Q 2219 2931 1791 2931 
Q 1403 2931 1139 2672 
Q 875 2413 847 1978 
z
" transform="scale(0.015625)"/>
       </defs>
       <use xlink:href="#ArialMT-47"/>
       <use xlink:href="#ArialMT-61" transform="translate(77.783203 0)"/>
       <use xlink:href="#ArialMT-75" transform="translate(133.398438 0)"/>
       <use xlink:href="#ArialMT-73" transform="translate(189.013672 0)"/>
       <use xlink:href="#ArialMT-73" transform="translate(239.013672 0)"/>
       <use xlink:href="#ArialMT-69" transform="translate(289.013672 0)"/>
       <use xlink:href="#ArialMT-61" transform="translate(311.230469 0)"/>
       <use xlink:href="#ArialMT-6e" transform="translate(366.845703 0)"/>
       <use xlink:href="#ArialMT-20" transform="translate(422.460938 0)"/>
       <use xlink:href="#ArialMT-50" transform="translate(450.244141 0)"/>
       <use xlink:href="#ArialMT-72" transform="translate(516.943359 0)"/>
       <use xlink:href="#ArialMT-6f" transform="translate(550.244141 0)"/>
       <use xlink:href="#ArialMT-63" transform="translate(605.859375 0)"/>
       <use xlink:href="#ArialMT-65" transform="translate(655.859375 0)"/>
       <use xlink:href="#ArialMT-73" transform="translate(711.474609 0)"/>
       <use xlink:href="#ArialMT-73" transform="translate(761.474609 0)"/>
      </g>
     </g>
    </g>
    <g id="xtick_2">
     <g id="text_2">
      <!-- Deep Ensemble -->
      <g style="fill: #262626" transform="translate(233.220781 263.077812) scale(0.1 -0.1)">
       <defs>
        <path id="ArialMT-44" d="M 494 0 
L 494 4581 
L 2072 4581 
Q 2606 4581 2888 4516 
Q 3281 4425 3559 4188 
Q 3922 3881 4101 3404 
Q 4281 2928 4281 2316 
Q 4281 1794 4159 1391 
Q 4038 988 3847 723 
Q 3656 459 3429 307 
Q 3203 156 2883 78 
Q 2563 0 2147 0 
L 494 0 
z
M 1100 541 
L 2078 541 
Q 2531 541 2789 625 
Q 3047 709 3200 863 
Q 3416 1078 3536 1442 
Q 3656 1806 3656 2325 
Q 3656 3044 3420 3430 
Q 3184 3816 2847 3947 
Q 2603 4041 2063 4041 
L 1100 4041 
L 1100 541 
z
" transform="scale(0.015625)"/>
        <path id="ArialMT-70" d="M 422 -1272 
L 422 3319 
L 934 3319 
L 934 2888 
Q 1116 3141 1344 3267 
Q 1572 3394 1897 3394 
Q 2322 3394 2647 3175 
Q 2972 2956 3137 2557 
Q 3303 2159 3303 1684 
Q 3303 1175 3120 767 
Q 2938 359 2589 142 
Q 2241 -75 1856 -75 
Q 1575 -75 1351 44 
Q 1128 163 984 344 
L 984 -1272 
L 422 -1272 
z
M 931 1641 
Q 931 1000 1190 694 
Q 1450 388 1819 388 
Q 2194 388 2461 705 
Q 2728 1022 2728 1688 
Q 2728 2322 2467 2637 
Q 2206 2953 1844 2953 
Q 1484 2953 1207 2617 
Q 931 2281 931 1641 
z
" transform="scale(0.015625)"/>
        <path id="ArialMT-45" d="M 506 0 
L 506 4581 
L 3819 4581 
L 3819 4041 
L 1113 4041 
L 1113 2638 
L 3647 2638 
L 3647 2100 
L 1113 2100 
L 1113 541 
L 3925 541 
L 3925 0 
L 506 0 
z
" transform="scale(0.015625)"/>
        <path id="ArialMT-6d" d="M 422 0 
L 422 3319 
L 925 3319 
L 925 2853 
Q 1081 3097 1340 3245 
Q 1600 3394 1931 3394 
Q 2300 3394 2536 3241 
Q 2772 3088 2869 2813 
Q 3263 3394 3894 3394 
Q 4388 3394 4653 3120 
Q 4919 2847 4919 2278 
L 4919 0 
L 4359 0 
L 4359 2091 
Q 4359 2428 4304 2576 
Q 4250 2725 4106 2815 
Q 3963 2906 3769 2906 
Q 3419 2906 3187 2673 
Q 2956 2441 2956 1928 
L 2956 0 
L 2394 0 
L 2394 2156 
Q 2394 2531 2256 2718 
Q 2119 2906 1806 2906 
Q 1569 2906 1367 2781 
Q 1166 2656 1075 2415 
Q 984 2175 984 1722 
L 984 0 
L 422 0 
z
" transform="scale(0.015625)"/>
        <path id="ArialMT-62" d="M 941 0 
L 419 0 
L 419 4581 
L 981 4581 
L 981 2947 
Q 1338 3394 1891 3394 
Q 2197 3394 2470 3270 
Q 2744 3147 2920 2923 
Q 3097 2700 3197 2384 
Q 3297 2069 3297 1709 
Q 3297 856 2875 390 
Q 2453 -75 1863 -75 
Q 1275 -75 941 416 
L 941 0 
z
M 934 1684 
Q 934 1088 1097 822 
Q 1363 388 1816 388 
Q 2184 388 2453 708 
Q 2722 1028 2722 1663 
Q 2722 2313 2464 2622 
Q 2206 2931 1841 2931 
Q 1472 2931 1203 2611 
Q 934 2291 934 1684 
z
" transform="scale(0.015625)"/>
        <path id="ArialMT-6c" d="M 409 0 
L 409 4581 
L 972 4581 
L 972 0 
L 409 0 
z
" transform="scale(0.015625)"/>
       </defs>
       <use xlink:href="#ArialMT-44"/>
       <use xlink:href="#ArialMT-65" transform="translate(72.216797 0)"/>
       <use xlink:href="#ArialMT-65" transform="translate(127.832031 0)"/>
       <use xlink:href="#ArialMT-70" transform="translate(183.447266 0)"/>
       <use xlink:href="#ArialMT-20" transform="translate(239.0625 0)"/>
       <use xlink:href="#ArialMT-45" transform="translate(266.845703 0)"/>
       <use xlink:href="#ArialMT-6e" transform="translate(333.544922 0)"/>
       <use xlink:href="#ArialMT-73" transform="translate(389.160156 0)"/>
       <use xlink:href="#ArialMT-65" transform="translate(439.160156 0)"/>
       <use xlink:href="#ArialMT-6d" transform="translate(494.775391 0)"/>
       <use xlink:href="#ArialMT-62" transform="translate(578.076172 0)"/>
       <use xlink:href="#ArialMT-6c" transform="translate(633.691406 0)"/>
       <use xlink:href="#ArialMT-65" transform="translate(655.908203 0)"/>
      </g>
     </g>
    </g>
    <g id="xtick_3">
     <g id="text_3">
      <!-- myopic -->
      <g style="fill: #262626" transform="translate(402.561615 263.077812) scale(0.1 -0.1)">
       <defs>
        <path id="ArialMT-79" d="M 397 -1278 
L 334 -750 
Q 519 -800 656 -800 
Q 844 -800 956 -737 
Q 1069 -675 1141 -563 
Q 1194 -478 1313 -144 
Q 1328 -97 1363 -6 
L 103 3319 
L 709 3319 
L 1400 1397 
Q 1534 1031 1641 628 
Q 1738 1016 1872 1384 
L 2581 3319 
L 3144 3319 
L 1881 -56 
Q 1678 -603 1566 -809 
Q 1416 -1088 1222 -1217 
Q 1028 -1347 759 -1347 
Q 597 -1347 397 -1278 
z
" transform="scale(0.015625)"/>
       </defs>
       <use xlink:href="#ArialMT-6d"/>
       <use xlink:href="#ArialMT-79" transform="translate(83.300781 0)"/>
       <use xlink:href="#ArialMT-6f" transform="translate(133.300781 0)"/>
       <use xlink:href="#ArialMT-70" transform="translate(188.916016 0)"/>
       <use xlink:href="#ArialMT-69" transform="translate(244.53125 0)"/>
       <use xlink:href="#ArialMT-63" transform="translate(266.748047 0)"/>
      </g>
     </g>
    </g>
    <g id="text_4">
     <!-- Model -->
     <g style="fill: #262626" transform="translate(255.177813 276.340312) scale(0.1 -0.1)">
      <defs>
       <path id="ArialMT-4d" d="M 475 0 
L 475 4581 
L 1388 4581 
L 2472 1338 
Q 2622 884 2691 659 
Q 2769 909 2934 1394 
L 4031 4581 
L 4847 4581 
L 4847 0 
L 4263 0 
L 4263 3834 
L 2931 0 
L 2384 0 
L 1059 3900 
L 1059 0 
L 475 0 
z
" transform="scale(0.015625)"/>
       <path id="ArialMT-64" d="M 2575 0 
L 2575 419 
Q 2259 -75 1647 -75 
Q 1250 -75 917 144 
Q 584 363 401 755 
Q 219 1147 219 1656 
Q 219 2153 384 2558 
Q 550 2963 881 3178 
Q 1213 3394 1622 3394 
Q 1922 3394 2156 3267 
Q 2391 3141 2538 2938 
L 2538 4581 
L 3097 4581 
L 3097 0 
L 2575 0 
z
M 797 1656 
Q 797 1019 1065 703 
Q 1334 388 1700 388 
Q 2069 388 2326 689 
Q 2584 991 2584 1609 
Q 2584 2291 2321 2609 
Q 2059 2928 1675 2928 
Q 1300 2928 1048 2622 
Q 797 2316 797 1656 
z
" transform="scale(0.015625)"/>
      </defs>
      <use xlink:href="#ArialMT-4d"/>
      <use xlink:href="#ArialMT-6f" transform="translate(83.300781 0)"/>
      <use xlink:href="#ArialMT-64" transform="translate(138.916016 0)"/>
      <use xlink:href="#ArialMT-65" transform="translate(194.53125 0)"/>
      <use xlink:href="#ArialMT-6c" transform="translate(250.146484 0)"/>
     </g>
    </g>
   </g>
   <g id="matplotlib.axis_2">
    <g id="ytick_1">
     <g id="line2d_1">
      <path d="M 44.39 241.741636 
L 493.2 241.741636 
" clip-path="url(#pb1bd346165)" style="fill: none; stroke: #ffffff; stroke-width: 0.8; stroke-linecap: round"/>
     </g>
     <g id="text_5">
      <!-- 0.0 -->
      <g style="fill: #262626" transform="translate(23.49 245.320543) scale(0.1 -0.1)">
       <defs>
        <path id="ArialMT-30" d="M 266 2259 
Q 266 3072 433 3567 
Q 600 4063 929 4331 
Q 1259 4600 1759 4600 
Q 2128 4600 2406 4451 
Q 2684 4303 2865 4023 
Q 3047 3744 3150 3342 
Q 3253 2941 3253 2259 
Q 3253 1453 3087 958 
Q 2922 463 2592 192 
Q 2263 -78 1759 -78 
Q 1097 -78 719 397 
Q 266 969 266 2259 
z
M 844 2259 
Q 844 1131 1108 757 
Q 1372 384 1759 384 
Q 2147 384 2411 759 
Q 2675 1134 2675 2259 
Q 2675 3391 2411 3762 
Q 2147 4134 1753 4134 
Q 1366 4134 1134 3806 
Q 844 3388 844 2259 
z
" transform="scale(0.015625)"/>
        <path id="ArialMT-2e" d="M 581 0 
L 581 641 
L 1222 641 
L 1222 0 
L 581 0 
z
" transform="scale(0.015625)"/>
       </defs>
       <use xlink:href="#ArialMT-30"/>
       <use xlink:href="#ArialMT-2e" transform="translate(55.615234 0)"/>
       <use xlink:href="#ArialMT-30" transform="translate(83.398438 0)"/>
      </g>
     </g>
    </g>
    <g id="ytick_2">
     <g id="line2d_2">
      <path d="M 44.39 207.352351 
L 493.2 207.352351 
" clip-path="url(#pb1bd346165)" style="fill: none; stroke: #ffffff; stroke-width: 0.8; stroke-linecap: round"/>
     </g>
     <g id="text_6">
      <!-- 0.5 -->
      <g style="fill: #262626" transform="translate(23.49 210.931257) scale(0.1 -0.1)">
       <defs>
        <path id="ArialMT-35" d="M 266 1200 
L 856 1250 
Q 922 819 1161 601 
Q 1400 384 1738 384 
Q 2144 384 2425 690 
Q 2706 997 2706 1503 
Q 2706 1984 2436 2262 
Q 2166 2541 1728 2541 
Q 1456 2541 1237 2417 
Q 1019 2294 894 2097 
L 366 2166 
L 809 4519 
L 3088 4519 
L 3088 3981 
L 1259 3981 
L 1013 2750 
Q 1425 3038 1878 3038 
Q 2478 3038 2890 2622 
Q 3303 2206 3303 1553 
Q 3303 931 2941 478 
Q 2500 -78 1738 -78 
Q 1113 -78 717 272 
Q 322 622 266 1200 
z
" transform="scale(0.015625)"/>
       </defs>
       <use xlink:href="#ArialMT-30"/>
       <use xlink:href="#ArialMT-2e" transform="translate(55.615234 0)"/>
       <use xlink:href="#ArialMT-35" transform="translate(83.398438 0)"/>
      </g>
     </g>
    </g>
    <g id="ytick_3">
     <g id="line2d_3">
      <path d="M 44.39 172.963065 
L 493.2 172.963065 
" clip-path="url(#pb1bd346165)" style="fill: none; stroke: #ffffff; stroke-width: 0.8; stroke-linecap: round"/>
     </g>
     <g id="text_7">
      <!-- 1.0 -->
      <g style="fill: #262626" transform="translate(23.49 176.541971) scale(0.1 -0.1)">
       <defs>
        <path id="ArialMT-31" d="M 2384 0 
L 1822 0 
L 1822 3584 
Q 1619 3391 1289 3197 
Q 959 3003 697 2906 
L 697 3450 
Q 1169 3672 1522 3987 
Q 1875 4303 2022 4600 
L 2384 4600 
L 2384 0 
z
" transform="scale(0.015625)"/>
       </defs>
       <use xlink:href="#ArialMT-31"/>
       <use xlink:href="#ArialMT-2e" transform="translate(55.615234 0)"/>
       <use xlink:href="#ArialMT-30" transform="translate(83.398438 0)"/>
      </g>
     </g>
    </g>
    <g id="ytick_4">
     <g id="line2d_4">
      <path d="M 44.39 138.573779 
L 493.2 138.573779 
" clip-path="url(#pb1bd346165)" style="fill: none; stroke: #ffffff; stroke-width: 0.8; stroke-linecap: round"/>
     </g>
     <g id="text_8">
      <!-- 1.5 -->
      <g style="fill: #262626" transform="translate(23.49 142.152686) scale(0.1 -0.1)">
       <use xlink:href="#ArialMT-31"/>
       <use xlink:href="#ArialMT-2e" transform="translate(55.615234 0)"/>
       <use xlink:href="#ArialMT-35" transform="translate(83.398438 0)"/>
      </g>
     </g>
    </g>
    <g id="ytick_5">
     <g id="line2d_5">
      <path d="M 44.39 104.184494 
L 493.2 104.184494 
" clip-path="url(#pb1bd346165)" style="fill: none; stroke: #ffffff; stroke-width: 0.8; stroke-linecap: round"/>
     </g>
     <g id="text_9">
      <!-- 2.0 -->
      <g style="fill: #262626" transform="translate(23.49 107.7634) scale(0.1 -0.1)">
       <defs>
        <path id="ArialMT-32" d="M 3222 541 
L 3222 0 
L 194 0 
Q 188 203 259 391 
Q 375 700 629 1000 
Q 884 1300 1366 1694 
Q 2113 2306 2375 2664 
Q 2638 3022 2638 3341 
Q 2638 3675 2398 3904 
Q 2159 4134 1775 4134 
Q 1369 4134 1125 3890 
Q 881 3647 878 3216 
L 300 3275 
Q 359 3922 746 4261 
Q 1134 4600 1788 4600 
Q 2447 4600 2831 4234 
Q 3216 3869 3216 3328 
Q 3216 3053 3103 2787 
Q 2991 2522 2730 2228 
Q 2469 1934 1863 1422 
Q 1356 997 1212 845 
Q 1069 694 975 541 
L 3222 541 
z
" transform="scale(0.015625)"/>
       </defs>
       <use xlink:href="#ArialMT-32"/>
       <use xlink:href="#ArialMT-2e" transform="translate(55.615234 0)"/>
       <use xlink:href="#ArialMT-30" transform="translate(83.398438 0)"/>
      </g>
     </g>
    </g>
    <g id="ytick_6">
     <g id="line2d_6">
      <path d="M 44.39 69.795208 
L 493.2 69.795208 
" clip-path="url(#pb1bd346165)" style="fill: none; stroke: #ffffff; stroke-width: 0.8; stroke-linecap: round"/>
     </g>
     <g id="text_10">
      <!-- 2.5 -->
      <g style="fill: #262626" transform="translate(23.49 73.374115) scale(0.1 -0.1)">
       <use xlink:href="#ArialMT-32"/>
       <use xlink:href="#ArialMT-2e" transform="translate(55.615234 0)"/>
       <use xlink:href="#ArialMT-35" transform="translate(83.398438 0)"/>
      </g>
     </g>
    </g>
    <g id="ytick_7">
     <g id="line2d_7">
      <path d="M 44.39 35.405923 
L 493.2 35.405923 
" clip-path="url(#pb1bd346165)" style="fill: none; stroke: #ffffff; stroke-width: 0.8; stroke-linecap: round"/>
     </g>
     <g id="text_11">
      <!-- 3.0 -->
      <g style="fill: #262626" transform="translate(23.49 38.984829) scale(0.1 -0.1)">
       <defs>
        <path id="ArialMT-33" d="M 269 1209 
L 831 1284 
Q 928 806 1161 595 
Q 1394 384 1728 384 
Q 2125 384 2398 659 
Q 2672 934 2672 1341 
Q 2672 1728 2419 1979 
Q 2166 2231 1775 2231 
Q 1616 2231 1378 2169 
L 1441 2663 
Q 1497 2656 1531 2656 
Q 1891 2656 2178 2843 
Q 2466 3031 2466 3422 
Q 2466 3731 2256 3934 
Q 2047 4138 1716 4138 
Q 1388 4138 1169 3931 
Q 950 3725 888 3313 
L 325 3413 
Q 428 3978 793 4289 
Q 1159 4600 1703 4600 
Q 2078 4600 2393 4439 
Q 2709 4278 2876 4000 
Q 3044 3722 3044 3409 
Q 3044 3113 2884 2869 
Q 2725 2625 2413 2481 
Q 2819 2388 3044 2092 
Q 3269 1797 3269 1353 
Q 3269 753 2831 336 
Q 2394 -81 1725 -81 
Q 1122 -81 723 278 
Q 325 638 269 1209 
z
" transform="scale(0.015625)"/>
       </defs>
       <use xlink:href="#ArialMT-33"/>
       <use xlink:href="#ArialMT-2e" transform="translate(55.615234 0)"/>
       <use xlink:href="#ArialMT-30" transform="translate(83.398438 0)"/>
      </g>
     </g>
    </g>
    <g id="text_12">
     <!-- Normalized RMSE -->
     <g style="fill: #262626" transform="translate(17.5025 178.299531) rotate(-90) scale(0.1 -0.1)">
      <defs>
       <path id="ArialMT-4e" d="M 488 0 
L 488 4581 
L 1109 4581 
L 3516 984 
L 3516 4581 
L 4097 4581 
L 4097 0 
L 3475 0 
L 1069 3600 
L 1069 0 
L 488 0 
z
" transform="scale(0.015625)"/>
       <path id="ArialMT-7a" d="M 125 0 
L 125 456 
L 2238 2881 
Q 1878 2863 1603 2863 
L 250 2863 
L 250 3319 
L 2963 3319 
L 2963 2947 
L 1166 841 
L 819 456 
Q 1197 484 1528 484 
L 3063 484 
L 3063 0 
L 125 0 
z
" transform="scale(0.015625)"/>
       <path id="ArialMT-52" d="M 503 0 
L 503 4581 
L 2534 4581 
Q 3147 4581 3465 4457 
Q 3784 4334 3975 4021 
Q 4166 3709 4166 3331 
Q 4166 2844 3850 2509 
Q 3534 2175 2875 2084 
Q 3116 1969 3241 1856 
Q 3506 1613 3744 1247 
L 4541 0 
L 3778 0 
L 3172 953 
Q 2906 1366 2734 1584 
Q 2563 1803 2427 1890 
Q 2291 1978 2150 2013 
Q 2047 2034 1813 2034 
L 1109 2034 
L 1109 0 
L 503 0 
z
M 1109 2559 
L 2413 2559 
Q 2828 2559 3062 2645 
Q 3297 2731 3419 2920 
Q 3541 3109 3541 3331 
Q 3541 3656 3305 3865 
Q 3069 4075 2559 4075 
L 1109 4075 
L 1109 2559 
z
" transform="scale(0.015625)"/>
       <path id="ArialMT-53" d="M 288 1472 
L 859 1522 
Q 900 1178 1048 958 
Q 1197 738 1509 602 
Q 1822 466 2213 466 
Q 2559 466 2825 569 
Q 3091 672 3220 851 
Q 3350 1031 3350 1244 
Q 3350 1459 3225 1620 
Q 3100 1781 2813 1891 
Q 2628 1963 1997 2114 
Q 1366 2266 1113 2400 
Q 784 2572 623 2826 
Q 463 3081 463 3397 
Q 463 3744 659 4045 
Q 856 4347 1234 4503 
Q 1613 4659 2075 4659 
Q 2584 4659 2973 4495 
Q 3363 4331 3572 4012 
Q 3781 3694 3797 3291 
L 3216 3247 
Q 3169 3681 2898 3903 
Q 2628 4125 2100 4125 
Q 1550 4125 1298 3923 
Q 1047 3722 1047 3438 
Q 1047 3191 1225 3031 
Q 1400 2872 2139 2705 
Q 2878 2538 3153 2413 
Q 3553 2228 3743 1945 
Q 3934 1663 3934 1294 
Q 3934 928 3725 604 
Q 3516 281 3123 101 
Q 2731 -78 2241 -78 
Q 1619 -78 1198 103 
Q 778 284 539 648 
Q 300 1013 288 1472 
z
" transform="scale(0.015625)"/>
      </defs>
      <use xlink:href="#ArialMT-4e"/>
      <use xlink:href="#ArialMT-6f" transform="translate(72.216797 0)"/>
      <use xlink:href="#ArialMT-72" transform="translate(127.832031 0)"/>
      <use xlink:href="#ArialMT-6d" transform="translate(161.132812 0)"/>
      <use xlink:href="#ArialMT-61" transform="translate(244.433594 0)"/>
      <use xlink:href="#ArialMT-6c" transform="translate(300.048828 0)"/>
      <use xlink:href="#ArialMT-69" transform="translate(322.265625 0)"/>
      <use xlink:href="#ArialMT-7a" transform="translate(344.482422 0)"/>
      <use xlink:href="#ArialMT-65" transform="translate(394.482422 0)"/>
      <use xlink:href="#ArialMT-64" transform="translate(450.097656 0)"/>
      <use xlink:href="#ArialMT-20" transform="translate(505.712891 0)"/>
      <use xlink:href="#ArialMT-52" transform="translate(533.496094 0)"/>
      <use xlink:href="#ArialMT-4d" transform="translate(605.712891 0)"/>
      <use xlink:href="#ArialMT-53" transform="translate(689.013672 0)"/>
      <use xlink:href="#ArialMT-45" transform="translate(755.712891 0)"/>
     </g>
    </g>
   </g>
   <g id="patch_3">
    <path d="M 119.191667 241.741636 
L 119.191667 241.741636 
L 119.191667 241.741636 
L 119.191667 241.741636 
z
" clip-path="url(#pb1bd346165)" style="fill: #3274a1; stroke: #3d3d3d; stroke-linejoin: miter"/>
   </g>
   <g id="patch_4">
    <path d="M 119.191667 241.741636 
L 119.191667 241.741636 
L 119.191667 241.741636 
L 119.191667 241.741636 
z
" clip-path="url(#pb1bd346165)" style="fill: #e1812c; stroke: #3d3d3d; stroke-linejoin: miter"/>
   </g>
   <g id="patch_5">
    <path d="M 119.191667 241.741636 
L 119.191667 241.741636 
L 119.191667 241.741636 
L 119.191667 241.741636 
z
" clip-path="url(#pb1bd346165)" style="fill: #3a923a; stroke: #3d3d3d; stroke-linejoin: miter"/>
   </g>
   <g id="patch_6">
    <path d="M 119.191667 241.741636 
L 119.191667 241.741636 
L 119.191667 241.741636 
L 119.191667 241.741636 
z
" clip-path="url(#pb1bd346165)" style="fill: #c03d3e; stroke: #3d3d3d; stroke-linejoin: miter"/>
   </g>
   <g id="patch_7">
    <path d="M 119.191667 241.741636 
L 119.191667 241.741636 
L 119.191667 241.741636 
L 119.191667 241.741636 
z
" clip-path="url(#pb1bd346165)" style="fill: #9372b2; stroke: #3d3d3d; stroke-linejoin: miter"/>
   </g>
   <g id="patch_8">
    <path d="M 59.350333 194.269406 
L 83.286867 194.269406 
L 83.286867 171.780813 
L 59.350333 171.780813 
L 59.350333 194.269406 
z
" clip-path="url(#pb1bd346165)" style="fill: #3274a1; stroke: #3d3d3d; stroke-linejoin: miter"/>
   </g>
   <g id="line2d_8">
    <path d="M 71.3186 194.269406 
L 71.3186 223.077844 
" clip-path="url(#pb1bd346165)" style="fill: none; stroke: #3d3d3d"/>
   </g>
   <g id="line2d_9">
    <path d="M 71.3186 171.780813 
L 71.3186 145.401303 
" clip-path="url(#pb1bd346165)" style="fill: none; stroke: #3d3d3d"/>
   </g>
   <g id="line2d_10">
    <path d="M 65.334467 223.077844 
L 77.302733 223.077844 
" clip-path="url(#pb1bd346165)" style="fill: none; stroke: #3d3d3d; stroke-linecap: round"/>
   </g>
   <g id="line2d_11">
    <path d="M 65.334467 145.401303 
L 77.302733 145.401303 
" clip-path="url(#pb1bd346165)" style="fill: none; stroke: #3d3d3d; stroke-linecap: round"/>
   </g>
   <g id="patch_9">
    <path d="M 208.953667 212.04552 
L 232.8902 212.04552 
L 232.8902 173.399687 
L 208.953667 173.399687 
L 208.953667 212.04552 
z
" clip-path="url(#pb1bd346165)" style="fill: #3274a1; stroke: #3d3d3d; stroke-linejoin: miter"/>
   </g>
   <g id="line2d_12">
    <path d="M 220.921933 212.04552 
L 220.921933 234.894161 
" clip-path="url(#pb1bd346165)" style="fill: none; stroke: #3d3d3d"/>
   </g>
   <g id="line2d_13">
    <path d="M 220.921933 173.399687 
L 220.921933 171.918498 
" clip-path="url(#pb1bd346165)" style="fill: none; stroke: #3d3d3d"/>
   </g>
   <g id="line2d_14">
    <path d="M 214.9378 234.894161 
L 226.906067 234.894161 
" clip-path="url(#pb1bd346165)" style="fill: none; stroke: #3d3d3d; stroke-linecap: round"/>
   </g>
   <g id="line2d_15">
    <path d="M 214.9378 171.918498 
L 226.906067 171.918498 
" clip-path="url(#pb1bd346165)" style="fill: none; stroke: #3d3d3d; stroke-linecap: round"/>
   </g>
   <g id="patch_10">
    <path d="M 358.557 190.146412 
L 382.493533 190.146412 
L 382.493533 172.47194 
L 358.557 172.47194 
L 358.557 190.146412 
z
" clip-path="url(#pb1bd346165)" style="fill: #3274a1; stroke: #3d3d3d; stroke-linejoin: miter"/>
   </g>
   <g id="line2d_16">
    <path d="M 370.525267 190.146412 
L 370.525267 213.176325 
" clip-path="url(#pb1bd346165)" style="fill: none; stroke: #3d3d3d"/>
   </g>
   <g id="line2d_17">
    <path d="M 370.525267 172.47194 
L 370.525267 149.946105 
" clip-path="url(#pb1bd346165)" style="fill: none; stroke: #3d3d3d"/>
   </g>
   <g id="line2d_18">
    <path d="M 364.541133 213.176325 
L 376.5094 213.176325 
" clip-path="url(#pb1bd346165)" style="fill: none; stroke: #3d3d3d; stroke-linecap: round"/>
   </g>
   <g id="line2d_19">
    <path d="M 364.541133 149.946105 
L 376.5094 149.946105 
" clip-path="url(#pb1bd346165)" style="fill: none; stroke: #3d3d3d; stroke-linecap: round"/>
   </g>
   <g id="patch_11">
    <path d="M 83.286867 171.986882 
L 107.2234 171.986882 
L 107.2234 114.38709 
L 83.286867 114.38709 
L 83.286867 171.986882 
z
" clip-path="url(#pb1bd346165)" style="fill: #e1812c; stroke: #3d3d3d; stroke-linejoin: miter"/>
   </g>
   <g id="line2d_20">
    <path d="M 95.255133 171.986882 
L 95.255133 194.647048 
" clip-path="url(#pb1bd346165)" style="fill: none; stroke: #3d3d3d"/>
   </g>
   <g id="line2d_21">
    <path d="M 95.255133 114.38709 
L 95.255133 35.598182 
" clip-path="url(#pb1bd346165)" style="fill: none; stroke: #3d3d3d"/>
   </g>
   <g id="line2d_22">
    <path d="M 89.271 194.647048 
L 101.239267 194.647048 
" clip-path="url(#pb1bd346165)" style="fill: none; stroke: #3d3d3d; stroke-linecap: round"/>
   </g>
   <g id="line2d_23">
    <path d="M 89.271 35.598182 
L 101.239267 35.598182 
" clip-path="url(#pb1bd346165)" style="fill: none; stroke: #3d3d3d; stroke-linecap: round"/>
   </g>
   <g id="patch_12">
    <path d="M 232.8902 234.289144 
L 256.826733 234.289144 
L 256.826733 215.974715 
L 232.8902 215.974715 
L 232.8902 234.289144 
z
" clip-path="url(#pb1bd346165)" style="fill: #e1812c; stroke: #3d3d3d; stroke-linejoin: miter"/>
   </g>
   <g id="line2d_24">
    <path d="M 244.858467 234.289144 
L 244.858467 237.366763 
" clip-path="url(#pb1bd346165)" style="fill: none; stroke: #3d3d3d"/>
   </g>
   <g id="line2d_25">
    <path d="M 244.858467 215.974715 
L 244.858467 189.094997 
" clip-path="url(#pb1bd346165)" style="fill: none; stroke: #3d3d3d"/>
   </g>
   <g id="line2d_26">
    <path d="M 238.874333 237.366763 
L 250.8426 237.366763 
" clip-path="url(#pb1bd346165)" style="fill: none; stroke: #3d3d3d; stroke-linecap: round"/>
   </g>
   <g id="line2d_27">
    <path d="M 238.874333 189.094997 
L 250.8426 189.094997 
" clip-path="url(#pb1bd346165)" style="fill: none; stroke: #3d3d3d; stroke-linecap: round"/>
   </g>
   <g id="patch_13">
    <path d="M 382.493533 216.176464 
L 406.430067 216.176464 
L 406.430067 200.424028 
L 382.493533 200.424028 
L 382.493533 216.176464 
z
" clip-path="url(#pb1bd346165)" style="fill: #e1812c; stroke: #3d3d3d; stroke-linejoin: miter"/>
   </g>
   <g id="line2d_28">
    <path d="M 394.4618 216.176464 
L 394.4618 225.977185 
" clip-path="url(#pb1bd346165)" style="fill: none; stroke: #3d3d3d"/>
   </g>
   <g id="line2d_29">
    <path d="M 394.4618 200.424028 
L 394.4618 178.809081 
" clip-path="url(#pb1bd346165)" style="fill: none; stroke: #3d3d3d"/>
   </g>
   <g id="line2d_30">
    <path d="M 388.477667 225.977185 
L 400.445933 225.977185 
" clip-path="url(#pb1bd346165)" style="fill: none; stroke: #3d3d3d; stroke-linecap: round"/>
   </g>
   <g id="line2d_31">
    <path d="M 388.477667 178.809081 
L 400.445933 178.809081 
" clip-path="url(#pb1bd346165)" style="fill: none; stroke: #3d3d3d; stroke-linecap: round"/>
   </g>
   <g id="patch_14">
    <path d="M 107.2234 201.028125 
L 131.159933 201.028125 
L 131.159933 172.235008 
L 107.2234 172.235008 
L 107.2234 201.028125 
z
" clip-path="url(#pb1bd346165)" style="fill: #3a923a; stroke: #3d3d3d; stroke-linejoin: miter"/>
   </g>
   <g id="line2d_32">
    <path d="M 119.191667 201.028125 
L 119.191667 218.363471 
" clip-path="url(#pb1bd346165)" style="fill: none; stroke: #3d3d3d"/>
   </g>
   <g id="line2d_33">
    <path d="M 119.191667 172.235008 
L 119.191667 169.575845 
" clip-path="url(#pb1bd346165)" style="fill: none; stroke: #3d3d3d"/>
   </g>
   <g id="line2d_34">
    <path d="M 113.207533 218.363471 
L 125.1758 218.363471 
" clip-path="url(#pb1bd346165)" style="fill: none; stroke: #3d3d3d; stroke-linecap: round"/>
   </g>
   <g id="line2d_35">
    <path d="M 113.207533 169.575845 
L 125.1758 169.575845 
" clip-path="url(#pb1bd346165)" style="fill: none; stroke: #3d3d3d; stroke-linecap: round"/>
   </g>
   <g id="patch_15">
    <path d="M 256.826733 236.245082 
L 280.763267 236.245082 
L 280.763267 222.455645 
L 256.826733 222.455645 
L 256.826733 236.245082 
z
" clip-path="url(#pb1bd346165)" style="fill: #3a923a; stroke: #3d3d3d; stroke-linejoin: miter"/>
   </g>
   <g id="line2d_36">
    <path d="M 268.795 236.245082 
L 268.795 237.934378 
" clip-path="url(#pb1bd346165)" style="fill: none; stroke: #3d3d3d"/>
   </g>
   <g id="line2d_37">
    <path d="M 268.795 222.455645 
L 268.795 201.818323 
" clip-path="url(#pb1bd346165)" style="fill: none; stroke: #3d3d3d"/>
   </g>
   <g id="line2d_38">
    <path d="M 262.810867 237.934378 
L 274.779133 237.934378 
" clip-path="url(#pb1bd346165)" style="fill: none; stroke: #3d3d3d; stroke-linecap: round"/>
   </g>
   <g id="line2d_39">
    <path d="M 262.810867 201.818323 
L 274.779133 201.818323 
" clip-path="url(#pb1bd346165)" style="fill: none; stroke: #3d3d3d; stroke-linecap: round"/>
   </g>
   <g id="patch_16">
    <path d="M 406.430067 205.167505 
L 430.3666 205.167505 
L 430.3666 191.19855 
L 406.430067 191.19855 
L 406.430067 205.167505 
z
" clip-path="url(#pb1bd346165)" style="fill: #3a923a; stroke: #3d3d3d; stroke-linejoin: miter"/>
   </g>
   <g id="line2d_40">
    <path d="M 418.398333 205.167505 
L 418.398333 218.189816 
" clip-path="url(#pb1bd346165)" style="fill: none; stroke: #3d3d3d"/>
   </g>
   <g id="line2d_41">
    <path d="M 418.398333 191.19855 
L 418.398333 173.633151 
" clip-path="url(#pb1bd346165)" style="fill: none; stroke: #3d3d3d"/>
   </g>
   <g id="line2d_42">
    <path d="M 412.4142 218.189816 
L 424.382467 218.189816 
" clip-path="url(#pb1bd346165)" style="fill: none; stroke: #3d3d3d; stroke-linecap: round"/>
   </g>
   <g id="line2d_43">
    <path d="M 412.4142 173.633151 
L 424.382467 173.633151 
" clip-path="url(#pb1bd346165)" style="fill: none; stroke: #3d3d3d; stroke-linecap: round"/>
   </g>
   <g id="patch_17">
    <path d="M 131.159933 203.81469 
L 155.096467 203.81469 
L 155.096467 180.945428 
L 131.159933 180.945428 
L 131.159933 203.81469 
z
" clip-path="url(#pb1bd346165)" style="fill: #c03d3e; stroke: #3d3d3d; stroke-linejoin: miter"/>
   </g>
   <g id="line2d_44">
    <path d="M 143.1282 203.81469 
L 143.1282 223.727385 
" clip-path="url(#pb1bd346165)" style="fill: none; stroke: #3d3d3d"/>
   </g>
   <g id="line2d_45">
    <path d="M 143.1282 180.945428 
L 143.1282 171.230094 
" clip-path="url(#pb1bd346165)" style="fill: none; stroke: #3d3d3d"/>
   </g>
   <g id="line2d_46">
    <path d="M 137.144067 223.727385 
L 149.112333 223.727385 
" clip-path="url(#pb1bd346165)" style="fill: none; stroke: #3d3d3d; stroke-linecap: round"/>
   </g>
   <g id="line2d_47">
    <path d="M 137.144067 171.230094 
L 149.112333 171.230094 
" clip-path="url(#pb1bd346165)" style="fill: none; stroke: #3d3d3d; stroke-linecap: round"/>
   </g>
   <g id="patch_18">
    <path d="M 280.763267 237.519479 
L 304.6998 237.519479 
L 304.6998 231.825885 
L 280.763267 231.825885 
L 280.763267 237.519479 
z
" clip-path="url(#pb1bd346165)" style="fill: #c03d3e; stroke: #3d3d3d; stroke-linejoin: miter"/>
   </g>
   <g id="line2d_48">
    <path d="M 292.731533 237.519479 
L 292.731533 238.761818 
" clip-path="url(#pb1bd346165)" style="fill: none; stroke: #3d3d3d"/>
   </g>
   <g id="line2d_49">
    <path d="M 292.731533 231.825885 
L 292.731533 224.031526 
" clip-path="url(#pb1bd346165)" style="fill: none; stroke: #3d3d3d"/>
   </g>
   <g id="line2d_50">
    <path d="M 286.7474 238.761818 
L 298.715667 238.761818 
" clip-path="url(#pb1bd346165)" style="fill: none; stroke: #3d3d3d; stroke-linecap: round"/>
   </g>
   <g id="line2d_51">
    <path d="M 286.7474 224.031526 
L 298.715667 224.031526 
" clip-path="url(#pb1bd346165)" style="fill: none; stroke: #3d3d3d; stroke-linecap: round"/>
   </g>
   <g id="patch_19">
    <path d="M 430.3666 209.497353 
L 454.303133 209.497353 
L 454.303133 194.912833 
L 430.3666 194.912833 
L 430.3666 209.497353 
z
" clip-path="url(#pb1bd346165)" style="fill: #c03d3e; stroke: #3d3d3d; stroke-linejoin: miter"/>
   </g>
   <g id="line2d_52">
    <path d="M 442.334867 209.497353 
L 442.334867 224.953289 
" clip-path="url(#pb1bd346165)" style="fill: none; stroke: #3d3d3d"/>
   </g>
   <g id="line2d_53">
    <path d="M 442.334867 194.912833 
L 442.334867 175.736397 
" clip-path="url(#pb1bd346165)" style="fill: none; stroke: #3d3d3d"/>
   </g>
   <g id="line2d_54">
    <path d="M 436.350733 224.953289 
L 448.319 224.953289 
" clip-path="url(#pb1bd346165)" style="fill: none; stroke: #3d3d3d; stroke-linecap: round"/>
   </g>
   <g id="line2d_55">
    <path d="M 436.350733 175.736397 
L 448.319 175.736397 
" clip-path="url(#pb1bd346165)" style="fill: none; stroke: #3d3d3d; stroke-linecap: round"/>
   </g>
   <g id="patch_20">
    <path d="M 155.096467 201.961497 
L 179.033 201.961497 
L 179.033 173.10967 
L 155.096467 173.10967 
L 155.096467 201.961497 
z
" clip-path="url(#pb1bd346165)" style="fill: #9372b2; stroke: #3d3d3d; stroke-linejoin: miter"/>
   </g>
   <g id="line2d_56">
    <path d="M 167.064733 201.961497 
L 167.064733 223.422588 
" clip-path="url(#pb1bd346165)" style="fill: none; stroke: #3d3d3d"/>
   </g>
   <g id="line2d_57">
    <path d="M 167.064733 173.10967 
L 167.064733 134.339314 
" clip-path="url(#pb1bd346165)" style="fill: none; stroke: #3d3d3d"/>
   </g>
   <g id="line2d_58">
    <path d="M 161.0806 223.422588 
L 173.048867 223.422588 
" clip-path="url(#pb1bd346165)" style="fill: none; stroke: #3d3d3d; stroke-linecap: round"/>
   </g>
   <g id="line2d_59">
    <path d="M 161.0806 134.339314 
L 173.048867 134.339314 
" clip-path="url(#pb1bd346165)" style="fill: none; stroke: #3d3d3d; stroke-linecap: round"/>
   </g>
   <g id="patch_21">
    <path d="M 304.6998 237.177214 
L 328.636333 237.177214 
L 328.636333 229.256255 
L 304.6998 229.256255 
L 304.6998 237.177214 
z
" clip-path="url(#pb1bd346165)" style="fill: #9372b2; stroke: #3d3d3d; stroke-linejoin: miter"/>
   </g>
   <g id="line2d_60">
    <path d="M 316.668067 237.177214 
L 316.668067 238.324226 
" clip-path="url(#pb1bd346165)" style="fill: none; stroke: #3d3d3d"/>
   </g>
   <g id="line2d_61">
    <path d="M 316.668067 229.256255 
L 316.668067 217.995512 
" clip-path="url(#pb1bd346165)" style="fill: none; stroke: #3d3d3d"/>
   </g>
   <g id="line2d_62">
    <path d="M 310.683933 238.324226 
L 322.6522 238.324226 
" clip-path="url(#pb1bd346165)" style="fill: none; stroke: #3d3d3d; stroke-linecap: round"/>
   </g>
   <g id="line2d_63">
    <path d="M 310.683933 217.995512 
L 322.6522 217.995512 
" clip-path="url(#pb1bd346165)" style="fill: none; stroke: #3d3d3d; stroke-linecap: round"/>
   </g>
   <g id="patch_22">
    <path d="M 454.303133 203.271696 
L 478.239667 203.271696 
L 478.239667 187.448781 
L 454.303133 187.448781 
L 454.303133 203.271696 
z
" clip-path="url(#pb1bd346165)" style="fill: #9372b2; stroke: #3d3d3d; stroke-linejoin: miter"/>
   </g>
   <g id="line2d_64">
    <path d="M 466.2714 203.271696 
L 466.2714 222.907882 
" clip-path="url(#pb1bd346165)" style="fill: none; stroke: #3d3d3d"/>
   </g>
   <g id="line2d_65">
    <path d="M 466.2714 187.448781 
L 466.2714 164.168804 
" clip-path="url(#pb1bd346165)" style="fill: none; stroke: #3d3d3d"/>
   </g>
   <g id="line2d_66">
    <path d="M 460.287267 222.907882 
L 472.255533 222.907882 
" clip-path="url(#pb1bd346165)" style="fill: none; stroke: #3d3d3d; stroke-linecap: round"/>
   </g>
   <g id="line2d_67">
    <path d="M 460.287267 164.168804 
L 472.255533 164.168804 
" clip-path="url(#pb1bd346165)" style="fill: none; stroke: #3d3d3d; stroke-linecap: round"/>
   </g>
   <g id="line2d_68">
    <path d="M 59.350333 174.620374 
L 83.286867 174.620374 
" clip-path="url(#pb1bd346165)" style="fill: none; stroke: #3d3d3d"/>
   </g>
   <g id="line2d_69">
    <path d="M 208.953667 193.630195 
L 232.8902 193.630195 
" clip-path="url(#pb1bd346165)" style="fill: none; stroke: #3d3d3d"/>
   </g>
   <g id="line2d_70">
    <path d="M 358.557 178.916694 
L 382.493533 178.916694 
" clip-path="url(#pb1bd346165)" style="fill: none; stroke: #3d3d3d"/>
   </g>
   <g id="line2d_71">
    <path d="M 83.286867 148.69028 
L 107.2234 148.69028 
" clip-path="url(#pb1bd346165)" style="fill: none; stroke: #3d3d3d"/>
   </g>
   <g id="line2d_72">
    <path d="M 232.8902 227.795351 
L 256.826733 227.795351 
" clip-path="url(#pb1bd346165)" style="fill: none; stroke: #3d3d3d"/>
   </g>
   <g id="line2d_73">
    <path d="M 382.493533 206.705019 
L 406.430067 206.705019 
" clip-path="url(#pb1bd346165)" style="fill: none; stroke: #3d3d3d"/>
   </g>
   <g id="line2d_74">
    <path d="M 107.2234 182.513508 
L 131.159933 182.513508 
" clip-path="url(#pb1bd346165)" style="fill: none; stroke: #3d3d3d"/>
   </g>
   <g id="line2d_75">
    <path d="M 256.826733 233.017971 
L 280.763267 233.017971 
" clip-path="url(#pb1bd346165)" style="fill: none; stroke: #3d3d3d"/>
   </g>
   <g id="line2d_76">
    <path d="M 406.430067 199.565319 
L 430.3666 199.565319 
" clip-path="url(#pb1bd346165)" style="fill: none; stroke: #3d3d3d"/>
   </g>
   <g id="line2d_77">
    <path d="M 131.159933 195.384247 
L 155.096467 195.384247 
" clip-path="url(#pb1bd346165)" style="fill: none; stroke: #3d3d3d"/>
   </g>
   <g id="line2d_78">
    <path d="M 280.763267 235.921893 
L 304.6998 235.921893 
" clip-path="url(#pb1bd346165)" style="fill: none; stroke: #3d3d3d"/>
   </g>
   <g id="line2d_79">
    <path d="M 430.3666 202.995792 
L 454.303133 202.995792 
" clip-path="url(#pb1bd346165)" style="fill: none; stroke: #3d3d3d"/>
   </g>
   <g id="line2d_80">
    <path d="M 155.096467 183.034859 
L 179.033 183.034859 
" clip-path="url(#pb1bd346165)" style="fill: none; stroke: #3d3d3d"/>
   </g>
   <g id="line2d_81">
    <path d="M 304.6998 235.846282 
L 328.636333 235.846282 
" clip-path="url(#pb1bd346165)" style="fill: none; stroke: #3d3d3d"/>
   </g>
   <g id="line2d_82">
    <path d="M 454.303133 195.99406 
L 478.239667 195.99406 
" clip-path="url(#pb1bd346165)" style="fill: none; stroke: #3d3d3d"/>
   </g>
   <g id="patch_23">
    <path d="M 44.39 248.92 
L 44.39 25.44 
" style="fill: none; stroke: #ffffff; stroke-width: 0.8; stroke-linejoin: miter; stroke-linecap: square"/>
   </g>
   <g id="patch_24">
    <path d="M 493.2 248.92 
L 493.2 25.44 
" style="fill: none; stroke: #ffffff; stroke-width: 0.8; stroke-linejoin: miter; stroke-linecap: square"/>
   </g>
   <g id="patch_25">
    <path d="M 44.39 248.92 
L 493.2 248.92 
" style="fill: none; stroke: #ffffff; stroke-width: 0.8; stroke-linejoin: miter; stroke-linecap: square"/>
   </g>
   <g id="patch_26">
    <path d="M 44.39 25.44 
L 493.2 25.44 
" style="fill: none; stroke: #ffffff; stroke-width: 0.8; stroke-linejoin: miter; stroke-linecap: square"/>
   </g>
   <g id="text_13">
    <!-- Comparison of Normalized RMSE across Models -->
    <g style="fill: #262626" transform="translate(138.424375 19.44) scale(0.12 -0.12)">
     <defs>
      <path id="ArialMT-43" d="M 3763 1606 
L 4369 1453 
Q 4178 706 3683 314 
Q 3188 -78 2472 -78 
Q 1731 -78 1267 223 
Q 803 525 561 1097 
Q 319 1669 319 2325 
Q 319 3041 592 3573 
Q 866 4106 1370 4382 
Q 1875 4659 2481 4659 
Q 3169 4659 3637 4309 
Q 4106 3959 4291 3325 
L 3694 3184 
Q 3534 3684 3231 3912 
Q 2928 4141 2469 4141 
Q 1941 4141 1586 3887 
Q 1231 3634 1087 3207 
Q 944 2781 944 2328 
Q 944 1744 1114 1308 
Q 1284 872 1643 656 
Q 2003 441 2422 441 
Q 2931 441 3284 734 
Q 3638 1028 3763 1606 
z
" transform="scale(0.015625)"/>
      <path id="ArialMT-66" d="M 556 0 
L 556 2881 
L 59 2881 
L 59 3319 
L 556 3319 
L 556 3672 
Q 556 4006 616 4169 
Q 697 4388 901 4523 
Q 1106 4659 1475 4659 
Q 1713 4659 2000 4603 
L 1916 4113 
Q 1741 4144 1584 4144 
Q 1328 4144 1222 4034 
Q 1116 3925 1116 3625 
L 1116 3319 
L 1763 3319 
L 1763 2881 
L 1116 2881 
L 1116 0 
L 556 0 
z
" transform="scale(0.015625)"/>
     </defs>
     <use xlink:href="#ArialMT-43"/>
     <use xlink:href="#ArialMT-6f" transform="translate(72.216797 0)"/>
     <use xlink:href="#ArialMT-6d" transform="translate(127.832031 0)"/>
     <use xlink:href="#ArialMT-70" transform="translate(211.132812 0)"/>
     <use xlink:href="#ArialMT-61" transform="translate(266.748047 0)"/>
     <use xlink:href="#ArialMT-72" transform="translate(322.363281 0)"/>
     <use xlink:href="#ArialMT-69" transform="translate(355.664062 0)"/>
     <use xlink:href="#ArialMT-73" transform="translate(377.880859 0)"/>
     <use xlink:href="#ArialMT-6f" transform="translate(427.880859 0)"/>
     <use xlink:href="#ArialMT-6e" transform="translate(483.496094 0)"/>
     <use xlink:href="#ArialMT-20" transform="translate(539.111328 0)"/>
     <use xlink:href="#ArialMT-6f" transform="translate(566.894531 0)"/>
     <use xlink:href="#ArialMT-66" transform="translate(622.509766 0)"/>
     <use xlink:href="#ArialMT-20" transform="translate(650.292969 0)"/>
     <use xlink:href="#ArialMT-4e" transform="translate(678.076172 0)"/>
     <use xlink:href="#ArialMT-6f" transform="translate(750.292969 0)"/>
     <use xlink:href="#ArialMT-72" transform="translate(805.908203 0)"/>
     <use xlink:href="#ArialMT-6d" transform="translate(839.208984 0)"/>
     <use xlink:href="#ArialMT-61" transform="translate(922.509766 0)"/>
     <use xlink:href="#ArialMT-6c" transform="translate(978.125 0)"/>
     <use xlink:href="#ArialMT-69" transform="translate(1000.341797 0)"/>
     <use xlink:href="#ArialMT-7a" transform="translate(1022.558594 0)"/>
     <use xlink:href="#ArialMT-65" transform="translate(1072.558594 0)"/>
     <use xlink:href="#ArialMT-64" transform="translate(1128.173828 0)"/>
     <use xlink:href="#ArialMT-20" transform="translate(1183.789062 0)"/>
     <use xlink:href="#ArialMT-52" transform="translate(1211.572266 0)"/>
     <use xlink:href="#ArialMT-4d" transform="translate(1283.789062 0)"/>
     <use xlink:href="#ArialMT-53" transform="translate(1367.089844 0)"/>
     <use xlink:href="#ArialMT-45" transform="translate(1433.789062 0)"/>
     <use xlink:href="#ArialMT-20" transform="translate(1500.488281 0)"/>
     <use xlink:href="#ArialMT-61" transform="translate(1528.271484 0)"/>
     <use xlink:href="#ArialMT-63" transform="translate(1583.886719 0)"/>
     <use xlink:href="#ArialMT-72" transform="translate(1633.886719 0)"/>
     <use xlink:href="#ArialMT-6f" transform="translate(1667.1875 0)"/>
     <use xlink:href="#ArialMT-73" transform="translate(1722.802734 0)"/>
     <use xlink:href="#ArialMT-73" transform="translate(1772.802734 0)"/>
     <use xlink:href="#ArialMT-20" transform="translate(1822.802734 0)"/>
     <use xlink:href="#ArialMT-4d" transform="translate(1850.585938 0)"/>
     <use xlink:href="#ArialMT-6f" transform="translate(1933.886719 0)"/>
     <use xlink:href="#ArialMT-64" transform="translate(1989.501953 0)"/>
     <use xlink:href="#ArialMT-65" transform="translate(2045.117188 0)"/>
     <use xlink:href="#ArialMT-6c" transform="translate(2100.732422 0)"/>
     <use xlink:href="#ArialMT-73" transform="translate(2122.949219 0)"/>
    </g>
   </g>
   <g id="legend_1">
    <g id="patch_27">
     <path d="M 311.353125 119.407187 
L 486.2 119.407187 
Q 488.2 119.407187 488.2 117.407187 
L 488.2 32.44 
Q 488.2 30.44 486.2 30.44 
L 311.353125 30.44 
Q 309.353125 30.44 309.353125 32.44 
L 309.353125 117.407187 
Q 309.353125 119.407187 311.353125 119.407187 
z
" style="fill: #eaeaf2; opacity: 0.8; stroke: #cccccc; stroke-linejoin: miter"/>
    </g>
    <g id="text_14">
     <!-- Policy -->
     <g style="fill: #262626" transform="translate(385.439063 41.597812) scale(0.1 -0.1)">
      <use xlink:href="#ArialMT-50"/>
      <use xlink:href="#ArialMT-6f" transform="translate(66.699219 0)"/>
      <use xlink:href="#ArialMT-6c" transform="translate(122.314453 0)"/>
      <use xlink:href="#ArialMT-69" transform="translate(144.53125 0)"/>
      <use xlink:href="#ArialMT-63" transform="translate(166.748047 0)"/>
      <use xlink:href="#ArialMT-79" transform="translate(216.748047 0)"/>
     </g>
    </g>
    <g id="patch_28">
     <path d="M 313.353125 55.9025 
L 333.353125 55.9025 
L 333.353125 48.9025 
L 313.353125 48.9025 
z
" style="fill: #3274a1; stroke: #3d3d3d; stroke-linejoin: miter"/>
    </g>
    <g id="text_15">
     <!-- $\epsilon$-greedy -->
     <g style="fill: #262626" transform="translate(341.353125 55.9025) scale(0.1 -0.1)">
      <defs>
       <path id="DejaVuSans-Oblique-3b5" d="M 1263 1888 
Q 925 1963 778 2166 
Q 669 2309 669 2503 
Q 669 3034 1175 3344 
Q 1575 3588 2188 3588 
Q 2425 3588 2684 3550 
Q 2944 3513 3234 3438 
L 3134 2916 
Q 2847 3006 2606 3047 
Q 2359 3088 2138 3088 
Q 1766 3088 1522 2944 
Q 1228 2772 1228 2522 
Q 1228 2356 1381 2241 
Q 1563 2103 1925 2103 
L 2409 2103 
L 2319 1628 
L 1856 1628 
Q 1425 1628 1172 1469 
Q 828 1253 828 916 
Q 828 703 1013 563 
Q 1244 388 1716 388 
Q 2006 388 2284 444 
Q 2563 503 2806 619 
L 2700 84 
Q 2403 -3 2131 -47 
Q 1859 -91 1609 -91 
Q 866 -91 516 194 
Q 250 413 250 781 
Q 250 1278 600 1584 
Q 859 1813 1263 1888 
z
" transform="scale(0.015625)"/>
       <path id="ArialMT-2d" d="M 203 1375 
L 203 1941 
L 1931 1941 
L 1931 1375 
L 203 1375 
z
" transform="scale(0.015625)"/>
       <path id="ArialMT-67" d="M 319 -275 
L 866 -356 
Q 900 -609 1056 -725 
Q 1266 -881 1628 -881 
Q 2019 -881 2231 -725 
Q 2444 -569 2519 -288 
Q 2563 -116 2559 434 
Q 2191 0 1641 0 
Q 956 0 581 494 
Q 206 988 206 1678 
Q 206 2153 378 2554 
Q 550 2956 876 3175 
Q 1203 3394 1644 3394 
Q 2231 3394 2613 2919 
L 2613 3319 
L 3131 3319 
L 3131 450 
Q 3131 -325 2973 -648 
Q 2816 -972 2473 -1159 
Q 2131 -1347 1631 -1347 
Q 1038 -1347 672 -1080 
Q 306 -813 319 -275 
z
M 784 1719 
Q 784 1066 1043 766 
Q 1303 466 1694 466 
Q 2081 466 2343 764 
Q 2606 1063 2606 1700 
Q 2606 2309 2336 2618 
Q 2066 2928 1684 2928 
Q 1309 2928 1046 2623 
Q 784 2319 784 1719 
z
" transform="scale(0.015625)"/>
      </defs>
      <use xlink:href="#DejaVuSans-Oblique-3b5" transform="translate(0 0.421875)"/>
      <use xlink:href="#ArialMT-2d" transform="translate(54.052734 0.421875)"/>
      <use xlink:href="#ArialMT-67" transform="translate(87.353516 0.421875)"/>
      <use xlink:href="#ArialMT-72" transform="translate(142.96875 0.421875)"/>
      <use xlink:href="#ArialMT-65" transform="translate(176.269531 0.421875)"/>
      <use xlink:href="#ArialMT-65" transform="translate(231.884766 0.421875)"/>
      <use xlink:href="#ArialMT-64" transform="translate(287.5 0.421875)"/>
      <use xlink:href="#ArialMT-79" transform="translate(343.115234 0.421875)"/>
     </g>
    </g>
    <g id="patch_29">
     <path d="M 313.353125 70.382187 
L 333.353125 70.382187 
L 333.353125 63.382187 
L 313.353125 63.382187 
z
" style="fill: #e1812c; stroke: #3d3d3d; stroke-linejoin: miter"/>
    </g>
    <g id="text_16">
     <!-- Value Greedy -->
     <g style="fill: #262626" transform="translate(341.353125 70.382187) scale(0.1 -0.1)">
      <defs>
       <path id="ArialMT-56" d="M 1803 0 
L 28 4581 
L 684 4581 
L 1875 1253 
Q 2019 853 2116 503 
Q 2222 878 2363 1253 
L 3600 4581 
L 4219 4581 
L 2425 0 
L 1803 0 
z
" transform="scale(0.015625)"/>
      </defs>
      <use xlink:href="#ArialMT-56"/>
      <use xlink:href="#ArialMT-61" transform="translate(59.324219 0)"/>
      <use xlink:href="#ArialMT-6c" transform="translate(114.939453 0)"/>
      <use xlink:href="#ArialMT-75" transform="translate(137.15625 0)"/>
      <use xlink:href="#ArialMT-65" transform="translate(192.771484 0)"/>
      <use xlink:href="#ArialMT-20" transform="translate(248.386719 0)"/>
      <use xlink:href="#ArialMT-47" transform="translate(276.169922 0)"/>
      <use xlink:href="#ArialMT-72" transform="translate(353.953125 0)"/>
      <use xlink:href="#ArialMT-65" transform="translate(387.253906 0)"/>
      <use xlink:href="#ArialMT-65" transform="translate(442.869141 0)"/>
      <use xlink:href="#ArialMT-64" transform="translate(498.484375 0)"/>
      <use xlink:href="#ArialMT-79" transform="translate(554.099609 0)"/>
     </g>
    </g>
    <g id="patch_30">
     <path d="M 313.353125 84.766562 
L 333.353125 84.766562 
L 333.353125 77.766562 
L 313.353125 77.766562 
z
" style="fill: #3a923a; stroke: #3d3d3d; stroke-linejoin: miter"/>
    </g>
    <g id="text_17">
     <!-- Uncertainty Greedy -->
     <g style="fill: #262626" transform="translate(341.353125 84.766562) scale(0.1 -0.1)">
      <defs>
       <path id="ArialMT-55" d="M 3500 4581 
L 4106 4581 
L 4106 1934 
Q 4106 1244 3950 837 
Q 3794 431 3386 176 
Q 2978 -78 2316 -78 
Q 1672 -78 1262 144 
Q 853 366 678 786 
Q 503 1206 503 1934 
L 503 4581 
L 1109 4581 
L 1109 1938 
Q 1109 1341 1220 1058 
Q 1331 775 1601 622 
Q 1872 469 2263 469 
Q 2931 469 3215 772 
Q 3500 1075 3500 1938 
L 3500 4581 
z
" transform="scale(0.015625)"/>
       <path id="ArialMT-74" d="M 1650 503 
L 1731 6 
Q 1494 -44 1306 -44 
Q 1000 -44 831 53 
Q 663 150 594 308 
Q 525 466 525 972 
L 525 2881 
L 113 2881 
L 113 3319 
L 525 3319 
L 525 4141 
L 1084 4478 
L 1084 3319 
L 1650 3319 
L 1650 2881 
L 1084 2881 
L 1084 941 
Q 1084 700 1114 631 
Q 1144 563 1211 522 
Q 1278 481 1403 481 
Q 1497 481 1650 503 
z
" transform="scale(0.015625)"/>
      </defs>
      <use xlink:href="#ArialMT-55"/>
      <use xlink:href="#ArialMT-6e" transform="translate(72.216797 0)"/>
      <use xlink:href="#ArialMT-63" transform="translate(127.832031 0)"/>
      <use xlink:href="#ArialMT-65" transform="translate(177.832031 0)"/>
      <use xlink:href="#ArialMT-72" transform="translate(233.447266 0)"/>
      <use xlink:href="#ArialMT-74" transform="translate(266.748047 0)"/>
      <use xlink:href="#ArialMT-61" transform="translate(294.53125 0)"/>
      <use xlink:href="#ArialMT-69" transform="translate(350.146484 0)"/>
      <use xlink:href="#ArialMT-6e" transform="translate(372.363281 0)"/>
      <use xlink:href="#ArialMT-74" transform="translate(427.978516 0)"/>
      <use xlink:href="#ArialMT-79" transform="translate(455.761719 0)"/>
      <use xlink:href="#ArialMT-20" transform="translate(505.761719 0)"/>
      <use xlink:href="#ArialMT-47" transform="translate(533.544922 0)"/>
      <use xlink:href="#ArialMT-72" transform="translate(611.328125 0)"/>
      <use xlink:href="#ArialMT-65" transform="translate(644.628906 0)"/>
      <use xlink:href="#ArialMT-65" transform="translate(700.244141 0)"/>
      <use xlink:href="#ArialMT-64" transform="translate(755.859375 0)"/>
      <use xlink:href="#ArialMT-79" transform="translate(811.474609 0)"/>
     </g>
    </g>
    <g id="patch_31">
     <path d="M 313.353125 99.157187 
L 333.353125 99.157187 
L 333.353125 92.157187 
L 313.353125 92.157187 
z
" style="fill: #c03d3e; stroke: #3d3d3d; stroke-linejoin: miter"/>
    </g>
    <g id="text_18">
     <!-- Receeding Horizon Orienteering -->
     <g style="fill: #262626" transform="translate(341.353125 99.157187) scale(0.1 -0.1)">
      <defs>
       <path id="ArialMT-48" d="M 513 0 
L 513 4581 
L 1119 4581 
L 1119 2700 
L 3500 2700 
L 3500 4581 
L 4106 4581 
L 4106 0 
L 3500 0 
L 3500 2159 
L 1119 2159 
L 1119 0 
L 513 0 
z
" transform="scale(0.015625)"/>
       <path id="ArialMT-4f" d="M 309 2231 
Q 309 3372 921 4017 
Q 1534 4663 2503 4663 
Q 3138 4663 3647 4359 
Q 4156 4056 4423 3514 
Q 4691 2972 4691 2284 
Q 4691 1588 4409 1038 
Q 4128 488 3612 205 
Q 3097 -78 2500 -78 
Q 1853 -78 1343 234 
Q 834 547 571 1087 
Q 309 1628 309 2231 
z
M 934 2222 
Q 934 1394 1379 917 
Q 1825 441 2497 441 
Q 3181 441 3623 922 
Q 4066 1403 4066 2288 
Q 4066 2847 3877 3264 
Q 3688 3681 3323 3911 
Q 2959 4141 2506 4141 
Q 1863 4141 1398 3698 
Q 934 3256 934 2222 
z
" transform="scale(0.015625)"/>
      </defs>
      <use xlink:href="#ArialMT-52"/>
      <use xlink:href="#ArialMT-65" transform="translate(72.216797 0)"/>
      <use xlink:href="#ArialMT-63" transform="translate(127.832031 0)"/>
      <use xlink:href="#ArialMT-65" transform="translate(177.832031 0)"/>
      <use xlink:href="#ArialMT-65" transform="translate(233.447266 0)"/>
      <use xlink:href="#ArialMT-64" transform="translate(289.0625 0)"/>
      <use xlink:href="#ArialMT-69" transform="translate(344.677734 0)"/>
      <use xlink:href="#ArialMT-6e" transform="translate(366.894531 0)"/>
      <use xlink:href="#ArialMT-67" transform="translate(422.509766 0)"/>
      <use xlink:href="#ArialMT-20" transform="translate(478.125 0)"/>
      <use xlink:href="#ArialMT-48" transform="translate(505.908203 0)"/>
      <use xlink:href="#ArialMT-6f" transform="translate(578.125 0)"/>
      <use xlink:href="#ArialMT-72" transform="translate(633.740234 0)"/>
      <use xlink:href="#ArialMT-69" transform="translate(667.041016 0)"/>
      <use xlink:href="#ArialMT-7a" transform="translate(689.257812 0)"/>
      <use xlink:href="#ArialMT-6f" transform="translate(739.257812 0)"/>
      <use xlink:href="#ArialMT-6e" transform="translate(794.873047 0)"/>
      <use xlink:href="#ArialMT-20" transform="translate(850.488281 0)"/>
      <use xlink:href="#ArialMT-4f" transform="translate(878.271484 0)"/>
      <use xlink:href="#ArialMT-72" transform="translate(956.054688 0)"/>
      <use xlink:href="#ArialMT-69" transform="translate(989.355469 0)"/>
      <use xlink:href="#ArialMT-65" transform="translate(1011.572266 0)"/>
      <use xlink:href="#ArialMT-6e" transform="translate(1067.1875 0)"/>
      <use xlink:href="#ArialMT-74" transform="translate(1122.802734 0)"/>
      <use xlink:href="#ArialMT-65" transform="translate(1150.585938 0)"/>
      <use xlink:href="#ArialMT-65" transform="translate(1206.201172 0)"/>
      <use xlink:href="#ArialMT-72" transform="translate(1261.816406 0)"/>
      <use xlink:href="#ArialMT-69" transform="translate(1295.117188 0)"/>
      <use xlink:href="#ArialMT-6e" transform="translate(1317.333984 0)"/>
      <use xlink:href="#ArialMT-67" transform="translate(1372.949219 0)"/>
     </g>
    </g>
    <g id="patch_32">
     <path d="M 313.353125 113.419687 
L 333.353125 113.419687 
L 333.353125 106.419687 
L 313.353125 106.419687 
z
" style="fill: #9372b2; stroke: #3d3d3d; stroke-linejoin: miter"/>
    </g>
    <g id="text_19">
     <!-- MCTS -->
     <g style="fill: #262626" transform="translate(341.353125 113.419687) scale(0.1 -0.1)">
      <defs>
       <path id="ArialMT-54" d="M 1659 0 
L 1659 4041 
L 150 4041 
L 150 4581 
L 3781 4581 
L 3781 4041 
L 2266 4041 
L 2266 0 
L 1659 0 
z
" transform="scale(0.015625)"/>
      </defs>
      <use xlink:href="#ArialMT-4d"/>
      <use xlink:href="#ArialMT-43" transform="translate(83.300781 0)"/>
      <use xlink:href="#ArialMT-54" transform="translate(155.517578 0)"/>
      <use xlink:href="#ArialMT-53" transform="translate(216.601562 0)"/>
     </g>
    </g>
   </g>
  </g>
 </g>
 <defs>
  <clipPath id="pb1bd346165">
   <rect x="44.39" y="25.44" width="448.81" height="223.48"/>
  </clipPath>
 </defs>
</svg>
